<svg width="25" height="30" viewBox="0 0 25 30" fill="none" xmlns="http://www.w3.org/2000/svg">
<path d="M20.707 15.6771C20.673 11.9531 23.835 10.1411 23.979 10.0571C22.189 7.51113 19.413 7.1631 18.437 7.1361C16.106 6.8961 13.845 8.49609 12.657 8.49609C11.446 8.49609 9.61702 7.15912 7.64602 7.19812C5.11002 7.23612 2.73703 8.66811 1.43603 10.8911C-1.24997 15.4241 0.753015 22.0861 3.32601 25.7501C4.61302 27.5451 6.11702 29.5491 8.08602 29.4781C10.012 29.4011 10.731 28.2811 13.056 28.2811C15.358 28.2811 16.034 29.4781 18.042 29.4331C20.109 29.4011 21.41 27.6301 22.652 25.8201C24.139 23.7631 24.737 21.7371 24.76 21.6331C24.712 21.6171 20.746 20.1411 20.707 15.6771Z" fill="white"/>
<path d="M16.9152 4.7251C17.9502 3.4621 18.6592 1.74412 18.4622 0.00012207C16.9632 0.0651221 15.0882 1.01109 14.0082 2.24609C13.0532 3.33509 12.2002 5.11912 12.4202 6.79712C14.1042 6.91912 15.8342 5.9681 16.9152 4.7251Z" fill="white"/>
</svg>
