<svg width="22" height="22" viewBox="0 0 22 22" fill="none" xmlns="http://www.w3.org/2000/svg">
<path d="M2.5 3.13502C2.50009 2.75508 2.63248 2.38704 2.87445 2.09412C3.11641 1.8012 3.45283 1.60169 3.82591 1.52987C4.19899 1.45805 4.58544 1.51839 4.91886 1.70054C5.25229 1.88269 5.51186 2.17527 5.653 2.52802L5.797 2.88602C5.18036 3.33688 4.70231 3.95141 4.417 4.66002C4.01127 5.65462 4.0041 6.76727 4.397 7.76702C4.43391 7.86048 4.48923 7.94557 4.55967 8.01724C4.63011 8.08891 4.71423 8.14569 4.80704 8.18421C4.89986 8.22274 4.99946 8.24222 5.09995 8.2415C5.20043 8.24077 5.29975 8.21987 5.392 8.18002L11.352 5.61402C11.5309 5.53711 11.6729 5.39362 11.7479 5.21389C11.823 5.03417 11.8251 4.83231 11.754 4.65102C11.5634 4.15906 11.2767 3.71 10.9106 3.33005C10.5446 2.95009 10.1065 2.64685 9.622 2.43802C8.84362 2.104 7.9767 2.03651 7.156 2.24602L7.046 1.97102C6.77552 1.29442 6.2778 0.733183 5.63839 0.383756C4.99899 0.0343283 4.25784 -0.0814592 3.54232 0.0562945C2.82681 0.194048 2.18162 0.576739 1.71766 1.13859C1.2537 1.70044 0.999941 2.40636 1 3.13502V10H0.75C0.551088 10 0.360322 10.079 0.21967 10.2197C0.0790177 10.3603 0 10.5511 0 10.75C0 10.9489 0.0790177 11.1397 0.21967 11.2803C0.360322 11.421 0.551088 11.5 0.75 11.5H1V11.855C1 12.23 1 12.45 1.016 12.695C1.158 14.932 2.366 16.997 4.118 18.347C4.10382 18.369 4.0908 18.3917 4.079 18.415L3.079 20.415C2.99198 20.5928 2.97874 20.7977 3.04216 20.9852C3.10559 21.1726 3.24053 21.3274 3.41759 21.4158C3.59466 21.5042 3.79948 21.5191 3.98743 21.4571C4.17538 21.3951 4.33123 21.2614 4.421 21.085L5.389 19.15C6.19466 19.5614 7.06929 19.8208 7.969 19.915C8.214 19.94 8.363 19.945 8.617 19.955H8.624C9.364 19.983 10.088 20 10.75 20C11.412 20 12.136 19.983 12.876 19.955H12.883C13.137 19.945 13.287 19.94 13.531 19.915C14.4307 19.8208 15.3053 19.5614 16.111 19.15L17.079 21.086C17.1231 21.1741 17.184 21.2527 17.2585 21.3173C17.3329 21.3818 17.4193 21.4311 17.5128 21.4622C17.6062 21.4934 17.7049 21.5058 17.8032 21.4988C17.9015 21.4918 17.9974 21.4656 18.0855 21.4215C18.1736 21.3775 18.2522 21.3165 18.3167 21.242C18.3813 21.1676 18.4305 21.0812 18.4617 20.9877C18.4929 20.8943 18.5053 20.7956 18.4983 20.6973C18.4913 20.5991 18.4651 20.5031 18.421 20.415L17.421 18.415C17.4095 18.3917 17.3968 18.369 17.383 18.347C19.134 16.997 20.343 14.931 20.485 12.695C20.5 12.45 20.5 12.23 20.5 11.855V11.817C20.5 11.757 20.5 11.694 20.496 11.637C20.4931 11.5912 20.4885 11.5455 20.482 11.5H20.75C20.9489 11.5 21.1397 11.421 21.2803 11.2803C21.421 11.1397 21.5 10.9489 21.5 10.75C21.5 10.5511 21.421 10.3603 21.2803 10.2197C21.1397 10.079 20.9489 10 20.75 10H2.5V3.13502Z" fill="#333333"/>
</svg>
