<svg width="22" height="18" viewBox="0 0 22 18" fill="none" xmlns="http://www.w3.org/2000/svg">
<path d="M19.25 7.5V1.5C19.25 1.30109 19.171 1.11032 19.0303 0.96967C18.8897 0.829018 18.6989 0.75 18.5 0.75H3.5C3.30109 0.75 3.11032 0.829018 2.96967 0.96967C2.82902 1.11032 2.75 1.30109 2.75 1.5V7.5C2.15326 7.5 1.58097 7.73705 1.15901 8.15901C0.737053 8.58097 0.5 9.15326 0.5 9.75V17.25H2.1875V15.75H19.8125V17.25H21.5V9.75C21.5 9.15326 21.2629 8.58097 20.841 8.15901C20.419 7.73705 19.8467 7.5 19.25 7.5ZM10.25 7.5H4.625V6C4.625 5.80109 4.70402 5.61032 4.84467 5.46967C4.98532 5.32902 5.17609 5.25 5.375 5.25H9.5C9.69891 5.25 9.88968 5.32902 10.0303 5.46967C10.171 5.61032 10.25 5.80109 10.25 6V7.5ZM11.75 6C11.75 5.80109 11.829 5.61032 11.9697 5.46967C12.1103 5.32902 12.3011 5.25 12.5 5.25H16.625C16.8239 5.25 17.0147 5.32902 17.1553 5.46967C17.296 5.61032 17.375 5.80109 17.375 6V7.5H11.75V6Z" fill="#333333"/>
</svg>
