<svg width="30" height="32" viewBox="0 0 30 32" fill="none" xmlns="http://www.w3.org/2000/svg">
<path d="M0.550003 1.34808C0.201003 1.70308 0 2.25608 0 2.97308V28.5281C0 29.2441 0.201003 29.7971 0.550003 30.1531L0.636002 30.2311L15.323 15.9161V15.5781L0.636002 1.26404L0.550003 1.34808Z" fill="white"/>
<path d="M21.9911 20.6901L17.1011 15.9161V15.5781L21.9971 10.8041L22.1071 10.8661L27.9051 14.0831C29.5601 14.9961 29.5601 16.4981 27.9051 17.4171L22.1071 20.6281L21.9911 20.6901Z" fill="white"/>
<path d="M21.218 21.517L16.212 16.636L1.43799 31.042C1.98799 31.605 2.88399 31.673 3.90399 31.11L21.218 21.517Z" fill="white"/>
<path d="M21.218 9.97806L3.90399 0.385045C2.88399 -0.171955 1.98799 -0.10498 1.43799 0.45902L16.212 14.858L21.218 9.97806Z" fill="white"/>
</svg>
