<svg width="50" height="50" viewBox="0 0 50 50" fill="none" xmlns="http://www.w3.org/2000/svg">
<path d="M42.3979 10.547L25.7312 4.29702C25.2607 4.123 24.7435 4.123 24.2729 4.29702L7.60625 10.547C7.20811 10.6953 6.86482 10.9618 6.62241 11.3107C6.38 11.6596 6.25005 12.0743 6.25 12.4991C6.31066 19.0175 7.9471 25.4246 11.0197 31.1737C14.0924 36.9228 18.51 41.8434 23.8958 45.5158C24.2269 45.7227 24.6095 45.8324 25 45.8324C25.3905 45.8324 25.7731 45.7227 26.1042 45.5158C31.49 41.8434 35.9076 36.9228 38.9803 31.1737C42.0529 25.4246 43.6893 19.0175 43.75 12.4991C43.7503 12.0747 43.6209 11.6604 43.3793 11.3116C43.1377 10.9627 42.7953 10.696 42.3979 10.547Z" fill="#F7FAFD"/>
</svg>
