<svg width="50" height="50" viewBox="0 0 50 50" fill="none" xmlns="http://www.w3.org/2000/svg">
<path d="M20.4665 16.5353C21.0186 16.5353 21.5686 16.3186 21.979 15.8853C23.5228 14.2603 26.2769 14.1978 27.8853 15.7498C28.7144 16.5478 30.0332 16.5248 30.8311 15.6957C31.6311 14.8686 31.6061 13.5478 30.779 12.7498C29.2165 11.2436 27.1644 10.4165 24.9998 10.4165C22.7248 10.4165 20.5228 11.3644 18.9561 13.0186C18.1644 13.8519 18.1998 15.1728 19.0332 15.9644C19.4353 16.3457 19.9519 16.5353 20.4665 16.5353Z" fill="#F7FAFD"/>
<path d="M39.5832 18.7498C39.5832 10.7082 33.0394 4.1665 24.9998 4.1665C16.9603 4.1665 10.4165 10.7082 10.4165 18.7498C6.97067 18.7498 4.1665 21.554 4.1665 24.9998V29.1665C4.1665 32.6123 6.97067 35.4165 10.4165 35.4165H12.4998C13.6519 35.4165 14.5832 34.4832 14.5832 33.3332V18.7498C14.5832 13.0061 19.2561 8.33317 24.9998 8.33317C30.7436 8.33317 35.4165 13.0061 35.4165 18.7498V33.5061C35.4165 36.8582 32.6894 39.5832 29.3394 39.5832H29.1665C29.1665 37.2853 27.2978 35.4165 24.9998 35.4165H22.9165C20.6186 35.4165 18.7498 37.2853 18.7498 39.5832V41.6665C18.7498 43.9644 20.6186 45.8332 22.9165 45.8332H24.9998C26.5353 45.8332 27.8644 44.9894 28.5873 43.7498H29.3394C34.3332 43.7498 38.4915 40.1519 39.3894 35.4165H39.5832C43.029 35.4165 45.8332 32.6123 45.8332 29.1665V24.9998C45.8332 21.554 43.029 18.7498 39.5832 18.7498Z" fill="#F7FAFD"/>
</svg>
