<svg width="22" height="22" viewBox="0 0 22 22" fill="none" xmlns="http://www.w3.org/2000/svg">
<path d="M20.192 8.87916L19.294 7.98016C19.104 7.79116 19 7.53916 19 7.27216V6.00016C19 4.34616 17.654 3.00016 16 3.00016H14.728C14.465 3.00016 14.207 2.89316 14.021 2.70716L13.122 1.80816C11.952 0.638164 10.05 0.638164 8.87996 1.80816L7.97896 2.70716C7.79296 2.89316 7.53496 3.00016 7.27196 3.00016H5.99996C4.34596 3.00016 2.99996 4.34616 2.99996 6.00016V7.27216C2.99996 7.53916 2.89596 7.79116 2.70696 7.98016L1.80796 8.87816C1.24096 9.44516 0.928955 10.1992 0.928955 11.0002C0.928955 11.8012 1.24196 12.5552 1.80796 13.1212L2.70596 14.0202C2.89596 14.2092 2.99996 14.4612 2.99996 14.7282V16.0002C2.99996 17.6542 4.34596 19.0002 5.99996 19.0002H7.27196C7.53496 19.0002 7.79296 19.1072 7.97896 19.2932L8.87796 20.1932C9.46296 20.7772 10.231 21.0692 10.999 21.0692C11.767 21.0692 12.535 20.7772 13.12 20.1922L14.019 19.2932C14.207 19.1072 14.465 19.0002 14.728 19.0002H16C17.654 19.0002 19 17.6542 19 16.0002V14.7282C19 14.4612 19.104 14.2092 19.294 14.0202L20.192 13.1222C20.758 12.5552 21.071 11.8022 21.071 11.0002C21.071 10.1982 20.759 9.44516 20.192 8.87916ZM15.555 9.83216L9.55496 13.8322C9.38596 13.9452 9.19196 14.0002 8.99996 14.0002C8.74196 14.0002 8.48596 13.9002 8.29296 13.7072L6.29296 11.7072C5.90196 11.3162 5.90196 10.6842 6.29296 10.2932C6.68396 9.90216 7.31596 9.90216 7.70695 10.2932L9.12696 11.7132L14.445 8.16816C14.906 7.86116 15.526 7.98516 15.832 8.44516C16.139 8.90516 16.015 9.52616 15.555 9.83216Z" fill="#3287CD"/>
</svg>
