<svg width="50" height="50" viewBox="0 0 50 50" fill="none" xmlns="http://www.w3.org/2000/svg">
<path d="M27.75 13.6466L22.2667 7.00783C22.0916 6.79751 21.8746 6.62309 21.6284 6.49487C21.3822 6.36665 21.1119 6.28722 20.8333 6.26127C20.2741 6.2127 19.7175 6.37937 19.2854 6.72486L10.7729 13.6466H27.75Z" fill="#F7FAFD"/>
<path d="M22.9167 31.7087V29.7018C22.9167 27.5727 23.7946 25.5309 25.3574 24.0254C26.9202 22.52 29.0399 21.6742 31.25 21.6742H41.6667V19.6673C41.6667 19.135 41.4472 18.6246 41.0565 18.2482C40.6658 17.8718 40.1359 17.6604 39.5833 17.6604H8.33333C7.7808 17.6604 7.25089 17.8718 6.86019 18.2482C6.46949 18.6246 6.25 19.135 6.25 19.6673V41.7431C6.25 42.2754 6.46949 42.7858 6.86019 43.1622C7.25089 43.5386 7.7808 43.75 8.33333 43.75H39.5833C40.1359 43.75 40.6658 43.5386 41.0565 43.1622C41.4472 42.7858 41.6667 42.2754 41.6667 41.7431V39.7362H31.25C29.0399 39.7362 26.9202 38.8905 25.3574 37.385C23.7946 35.8795 22.9167 33.8377 22.9167 31.7087Z" fill="#F7FAFD"/>
<path d="M41.6667 25.688H31.25C30.1449 25.688 29.0851 26.1109 28.3037 26.8636C27.5223 27.6163 27.0833 28.6372 27.0833 29.7018V31.7087C27.0833 32.7732 27.5223 33.7941 28.3037 34.5468C29.0851 35.2996 30.1449 35.7224 31.25 35.7224H41.6667C42.2192 35.7224 42.7491 35.511 43.1398 35.1346C43.5305 34.7583 43.75 34.2478 43.75 33.7155V27.6949C43.75 27.1626 43.5305 26.6521 43.1398 26.2758C42.7491 25.8994 42.2192 25.688 41.6667 25.688ZM34.375 32.7121C33.963 32.7121 33.5602 32.5944 33.2176 32.3739C32.875 32.1534 32.6079 31.8399 32.4503 31.4732C32.2926 31.1065 32.2513 30.703 32.3317 30.3137C32.4121 29.9244 32.6105 29.5668 32.9019 29.2861C33.1932 29.0054 33.5644 28.8143 33.9686 28.7369C34.3727 28.6594 34.7916 28.6992 35.1723 28.8511C35.5529 29.003 35.8783 29.2602 36.1072 29.5902C36.3361 29.9203 36.4583 30.3083 36.4583 30.7052C36.4583 31.2375 36.2388 31.7479 35.8481 32.1243C35.4574 32.5007 34.9275 32.7121 34.375 32.7121Z" fill="#F7FAFD"/>
<path d="M30.7562 13.6466H36.0833L30.6 7.00783C30.2558 6.59107 29.7538 6.3231 29.2045 6.26288C28.6551 6.20267 28.1035 6.35513 27.6708 6.68672C27.2382 7.01832 26.96 7.5019 26.8975 8.03107C26.835 8.56024 26.9933 9.09165 27.3375 9.50841L30.7562 13.6466Z" fill="#F7FAFD"/>
</svg>
